<svg xmlns="http://www.w3.org/2000/svg" viewBox="0 0 64 64" role="img" aria-label="Screenly">
  <defs>
    <linearGradient id="screenly-favicon-bg" x1="10" y1="58" x2="54" y2="6" gradientUnits="userSpaceOnUse">
      <stop stop-color="#641bff"/>
      <stop offset="0.55" stop-color="#8f46ff"/>
      <stop offset="1" stop-color="#d45cff"/>
    </linearGradient>
    <linearGradient id="screenly-favicon-strip" x1="18" y1="12" x2="48" y2="52" gradientUnits="userSpaceOnUse">
      <stop stop-color="#ffffff"/>
      <stop offset="0.5" stop-color="#f6f0ff"/>
      <stop offset="1" stop-color="#d9c4ff"/>
    </linearGradient>
  </defs>
  <rect x="4" y="4" width="56" height="56" rx="16" fill="url(#screenly-favicon-bg)"/>
  <path fill="url(#screenly-favicon-strip)" d="M24 12h22L28 24l24 13-20 19H13l20-18-24-13 15-13Z"/>
  <path fill="#8f46ff" d="M30 23h15l-12 8 12 6-8 8-18-9 11-13Z" opacity="0.9"/>
  <path fill="#ffffff" d="M23 14h5v4h-5v-4Zm9 0h5v4h-5v-4Zm9 0h5v4h-5v-4Zm-18 36h5v4h-5v-4Zm9 0h5v4h-5v-4Zm9 0h5v4h-5v-4Z" opacity="0.9"/>
</svg>
